<svg width="860" height="180" viewBox="0 0 860 180" fill="none" xmlns="http://www.w3.org/2000/svg">
  <rect x="8" y="16" width="148" height="148" rx="40" fill="url(#bg)"/>
  <rect x="17" y="25" width="130" height="130" rx="33" fill="url(#glow)" fill-opacity="0.38"/>
  <path d="M82 51C60.4609 51 43 68.4609 43 90V97.4C43 118.939 60.4609 136.4 82 136.4C103.539 136.4 121 118.939 121 97.4V90C121 68.4609 103.539 51 82 51ZM63.8442 90C63.8442 79.9681 71.9681 71.8442 82 71.8442C92.0319 71.8442 100.156 79.9681 100.156 90V94.037H63.8442V90ZM82 116.214C76.4264 116.214 71.9079 111.695 71.9079 106.121C71.9079 102.275 74.0599 98.9288 77.2266 97.2349V91.1766H86.7734V97.2349C89.9401 98.9288 92.0921 102.275 92.0921 106.121C92.0921 111.695 87.5736 116.214 82 116.214Z" fill="white"/>
  <path d="M117.631 50L120.113 56.2388L126.352 58.7209L120.113 61.203L117.631 67.4418L115.149 61.203L108.91 58.7209L115.149 56.2388L117.631 50Z" fill="white"/>
  <text x="190" y="112" fill="#101828" font-family="Avenir Next, Segoe UI, Helvetica Neue, Arial, sans-serif" font-size="74" font-weight="800" letter-spacing="-2.4">Only<tspan fill="#00A9F5">Objex</tspan></text>
  <defs>
    <linearGradient id="bg" x1="26" y1="18" x2="142" y2="155" gradientUnits="userSpaceOnUse">
      <stop stop-color="#1CC7FF"/>
      <stop offset="1" stop-color="#0098DB"/>
    </linearGradient>
    <linearGradient id="glow" x1="32" y1="28" x2="138" y2="152" gradientUnits="userSpaceOnUse">
      <stop stop-color="white"/>
      <stop offset="1" stop-color="#C9F4FF"/>
    </linearGradient>
  </defs>
</svg>
