<svg width="256" height="256" viewBox="0 0 256 256" fill="none" xmlns="http://www.w3.org/2000/svg">
  <rect width="256" height="256" rx="68" fill="url(#bg)"/>
  <rect x="16" y="16" width="224" height="224" rx="56" fill="url(#glow)" fill-opacity="0.38"/>
  <path d="M128 67C95.9675 67 70 92.9675 70 125V136C70 168.033 95.9675 194 128 194C160.033 194 186 168.033 186 136V125C186 92.9675 160.033 67 128 67ZM101 125C101 110.088 113.088 98 128 98C142.912 98 155 110.088 155 125V131H101V125ZM128 164C119.716 164 113 157.284 113 149C113 143.285 116.196 138.316 120.897 135.803V126H135.103V135.803C139.804 138.316 143 143.285 143 149C143 157.284 136.284 164 128 164Z" fill="white"/>
  <path d="M182 66L185.7 75.3L195 79L185.7 82.7L182 92L178.3 82.7L169 79L178.3 75.3L182 66Z" fill="white"/>
  <defs>
    <linearGradient id="bg" x1="31" y1="20" x2="214" y2="235" gradientUnits="userSpaceOnUse">
      <stop stop-color="#1CC7FF"/>
      <stop offset="1" stop-color="#0098DB"/>
    </linearGradient>
    <linearGradient id="glow" x1="38" y1="30" x2="211" y2="222" gradientUnits="userSpaceOnUse">
      <stop stop-color="white"/>
      <stop offset="1" stop-color="#C9F4FF"/>
    </linearGradient>
  </defs>
</svg>
